<?xml version="1.0" standalone="no"?><!DOCTYPE svg PUBLIC "-//W3C//DTD SVG 1.1//EN"
        "http://www.w3.org/Graphics/SVG/1.1/DTD/svg11.dtd">
<svg t="1670160008141" class="icon" viewBox="0 0 1024 1024" version="1.1" xmlns="http://www.w3.org/2000/svg"
     p-id="13433" width="200" height="200">
    <path d="M100.010667 272a36.010667 36.010667 0 1 0 71.978666 0 36.010667 36.010667 0 0 0-71.978666 0zM951.978667 128H72.021333C32.213333 128 0 160.213333 0 200.021333v624C0 863.744 32.213333 896 72.021333 896h880c39.765333 0 71.978667-32.213333 71.978667-72.021333V200.021333C1024 160.256 991.786667 128 951.978667 128zM256 824.021333H71.978667V416H256v408.021333z m696.021333 0H328.021333v-169.002666c0 0.469333 0.384 0.981333 0.981334 0.981333h621.994666c0.512 0 0.981333-0.426667 0.981334-0.981333v168.96z m0-239.018666a0.981333 0.981333 0 0 0-1.024-1.024H329.002667a0.981333 0.981333 0 0 0-1.024 1.024V416h624v168.96z m0-241.024H72.021333V200.021333h880v144zM203.946667 272a36.010667 36.010667 0 1 0 72.021333 0 36.010667 36.010667 0 0 0-72.021333 0z m104.021333 0a36.010667 36.010667 0 1 0 71.978667 0 36.010667 36.010667 0 0 0-71.978667 0z"
          fill="#000000" opacity=".65" p-id="13434"></path>
</svg>