<?xml version="1.0" standalone="no"?><!DOCTYPE svg PUBLIC "-//W3C//DTD SVG 1.1//EN"
        "http://www.w3.org/Graphics/SVG/1.1/DTD/svg11.dtd">
<svg t="1670229658877" class="icon" viewBox="0 0 1024 1024" version="1.1" xmlns="http://www.w3.org/2000/svg"
     p-id="16451" width="200" height="200">
    <path d="M256 1024c-140.8 0-256-115.2-256-256V256c0-140.8 115.2-256 256-256h512c140.8 0 256 115.2 256 256v512c0 140.8-115.2 256-256 256H256zM85.333333 256v512c0 93.866667 76.8 170.666667 170.666667 170.666667h512c93.866667 0 170.666667-76.8 170.666667-170.666667V256c0-93.866667-76.8-170.666667-170.666667-170.666667H256C162.133333 85.333333 85.333333 162.133333 85.333333 256z m187.733334 597.333333C217.6 853.333333 170.666667 806.4 170.666667 750.933333V273.066667C170.666667 217.6 217.6 170.666667 273.066667 170.666667h477.866666C806.4 170.666667 853.333333 217.6 853.333333 273.066667v477.866666c0 55.466667-46.933333 102.4-102.4 102.4H273.066667z m375.466666-362.666666l-294.4 294.4h396.8c8.533333 0 17.066667-4.266667 25.6-8.533334 8.533333-4.266667 8.533333-17.066667 8.533334-25.6v-123.733333l-136.533334-136.533333zM298.666667 384c0 46.933333 38.4 85.333333 85.333333 85.333333s85.333333-38.4 85.333333-85.333333-38.4-85.333333-85.333333-85.333333-85.333333 38.4-85.333333 85.333333z"
          p-id="16452"></path>
</svg>