<?xml version="1.0" standalone="no"?><!DOCTYPE svg PUBLIC "-//W3C//DTD SVG 1.1//EN"
        "http://www.w3.org/Graphics/SVG/1.1/DTD/svg11.dtd">
<svg t="1670159954611" class="icon" viewBox="0 0 1024 1024" version="1.1" xmlns="http://www.w3.org/2000/svg"
     p-id="12448" width="200" height="200">
    <path d="M544 688.917333V746.666667a32 32 0 0 1-64 0v-57.749334a117.333333 117.333333 0 1 1 64 0zM712.149333 298.666667C696.810667 201.941333 613.034667 128 512 128s-184.810667 73.941333-200.149333 170.666667h400.298666z m-465.770666 8.149333C258.453333 170.709333 372.757333 64 512 64s253.546667 106.709333 265.6 242.816A170.752 170.752 0 0 1 896 469.333333v298.666667a170.666667 170.666667 0 0 1-170.666667 170.666667H298.666667a170.666667 170.666667 0 0 1-170.666667-170.666667V469.333333a170.752 170.752 0 0 1 118.4-162.517333zM512 629.333333a53.333333 53.333333 0 1 0 0-106.666666 53.333333 53.333333 0 0 0 0 106.666666zM298.666667 362.666667a106.666667 106.666667 0 0 0-106.666667 106.666666v298.666667a106.666667 106.666667 0 0 0 106.666667 106.666667h426.666666a106.666667 106.666667 0 0 0 106.666667-106.666667V469.333333a106.666667 106.666667 0 0 0-106.666667-106.666666H298.666667z"
          fill="#000000" p-id="12449"></path>
</svg>