<?xml version="1.0" standalone="no"?><!DOCTYPE svg PUBLIC "-//W3C//DTD SVG 1.1//EN"
        "http://www.w3.org/Graphics/SVG/1.1/DTD/svg11.dtd">
<svg t="1670159849840" class="icon" viewBox="0 0 1024 1024" version="1.1" xmlns="http://www.w3.org/2000/svg"
     p-id="12007" width="200" height="200">
    <path d="M288.004107 627.188502a198.481695 198.481695 0 0 1 187.857889 134.397536H959.991787a63.998827 63.998827 0 0 1 6.143887 127.698992l-6.143887 0.298661H475.861996a198.481695 198.481695 0 0 1-375.715779 0H64.008213a63.998827 63.998827 0 0 1-6.143887-127.698992l6.143887-0.298661h36.138004A198.481695 198.481695 0 0 1 288.004107 627.188502z m0 127.997653a70.398709 70.398709 0 1 0 0 140.797419 70.398709 70.398709 0 0 0 0-140.797419z m447.991786-441.591904a198.481695 198.481695 0 0 1 187.85789 134.397536h36.138004a63.998827 63.998827 0 0 1 6.143887 127.698992l-6.143887 0.298661h-36.138004a198.481695 198.481695 0 0 1-375.715779 0H64.008213a63.998827 63.998827 0 0 1-6.143887-127.698992L64.008213 447.991787h484.129791a198.481695 198.481695 0 0 1 187.857889-134.397536z m70.39871 197.969704a70.398709 70.398709 0 1 0 0 0.426659v0.426658zM288.004107 0a198.481695 198.481695 0 0 1 187.857889 134.397536H959.991787a63.998827 63.998827 0 0 1 6.143887 127.698992l-6.143887 0.298661H475.861996a198.481695 198.481695 0 0 1-375.715779 0H64.008213a63.998827 63.998827 0 0 1-6.143887-127.698992L64.008213 134.397536h36.138004A198.481695 198.481695 0 0 1 288.004107 0z m0 127.997653A70.398709 70.398709 0 1 0 358.402816 198.396363v0.426659-0.853318A70.398709 70.398709 0 0 0 288.004107 127.997653z"
          p-id="12008"></path>
</svg>